Coordinates
version=1
nRows=7
nColumns=40
inDegrees=yes

Units are S.I. units (second, meters, Newtons, ...)
Angles are in degrees.

endheader
time	pelvis_tilt	pelvis_list	pelvis_rotation	pelvis_tx	pelvis_ty	pelvis_tz	hip_flexion_r	hip_adduction_r	hip_rotation_r	knee_angle_r	knee_angle_r_beta	ankle_angle_r	subtalar_angle_r	mtp_angle_r	hip_flexion_l	hip_adduction_l	hip_rotation_l	knee_angle_l	knee_angle_l_beta	ankle_angle_l	subtalar_angle_l	mtp_angle_l	lumbar_extension	lumbar_bending	lumbar_rotation	arm_flex_r	arm_add_r	arm_rot_r	elbow_flex_r	pro_sup_r	wrist_flex_r	wrist_dev_r	arm_flex_l	arm_add_l	arm_rot_l	elbow_flex_l	pro_sup_l	wrist_flex_l	wrist_dev_l
     53.84000000	     -2.62881302	     -4.32888573	      5.99709152	      1.05366944	      0.92575790	      0.45503482	     -0.22765456	     -2.67119515	    -16.60219200	     20.58234941	     20.58234941	     15.94671686	     -0.37860867	     -4.96506634	     22.42463597	     -5.58486846	     -1.26507218	     27.88266103	     27.88266103	     10.82578384	    -13.67133224	      4.31174029	     -7.60972271	      5.41619307	      3.85662215	     30.74471925	    -16.08593934	     -4.30479485	     99.33049713	     44.63784012	      0.00000000	      0.00000000	     -0.45088990	     -9.94743937	     -4.84014682	     30.82051703	     45.61082000	      0.00000000	      0.00000000
     53.85257143	     -2.79183420	     -4.08421503	      5.54098910	      1.05414173	      0.92598848	      0.45208087	      1.09502803	     -3.65083946	    -15.93695714	     23.42684116	     23.42684116	     15.58157908	     -1.27579428	     -5.88275023	     21.99620396	     -5.38781229	     -2.15457074	     27.79389364	     27.79389364	     11.40476457	    -12.99779453	      4.18196321	     -7.31773899	      5.05315386	      4.27341340	     29.76038658	    -16.19076059	     -4.72388062	     96.23002507	     44.75095871	      0.00000000	      0.00000000	      0.11579384	     -9.90166412	     -4.46271443	     30.68666314	     45.56788037	      0.00000000	      0.00000000
     53.86514286	     -2.73835096	     -4.09549218	      5.15969879	      1.05480169	      0.92662896	      0.44932802	      2.06813128	     -4.22875620	    -15.33354042	     25.94956004	     25.94956004	     14.91069611	     -2.15049154	     -6.72666735	     21.35635365	     -5.45070883	     -2.83601585	     27.67935913	     27.67935913	     11.94951531	    -12.46648493	      4.03982037	     -7.24086781	      5.01366994	      4.34065431	     28.79948102	    -15.94773844	     -4.88962266	     93.51895843	     44.84288814	      0.00000000	      0.00000000	      0.56099567	     -9.85852943	     -4.07161957	     30.51425379	     45.52123216	      0.00000000	      0.00000000
     53.87771429	     -2.63046703	     -4.09884622	      4.77603870	      1.05529761	      0.92737726	      0.44675583	      3.15933052	     -4.81551465	    -14.69463978	     28.72440744	     28.72440744	     14.08747102	     -3.09906670	     -7.53348595	     20.64145656	     -5.51772067	     -3.54933035	     27.51053248	     27.51053248	     12.37957572	    -11.91250734	      3.86585087	     -7.27043372	      4.99462099	      4.39431939	     27.74226146	    -15.69658788	     -4.88419188	     90.98556808	     44.92208329	      0.00000000	      0.00000000	      1.06111593	     -9.83201666	     -3.74088483	     30.46595159	     45.48369670	      0.00000000	      0.00000000
     53.89028571	     -2.59763560	     -4.33860028	      4.38697974	      1.05563824	      0.92800743	      0.44465931	      4.43982210	     -4.98952345	    -13.74274047	     31.46038038	     31.46038038	     12.59204521	     -4.88560972	     -9.25218852	     20.08987602	     -5.91658709	     -4.35496312	     27.43401229	     27.43401229	     12.94827981	    -10.93013889	      3.50273812	     -7.05728050	      5.16872858	      3.88875956	     27.73640585	    -14.78013180	     -4.81698042	     85.54616178	     45.10131980	      0.00000000	      0.00000000	      1.41900876	    -10.03163853	     -2.58741479	     29.92527170	     45.33417696	      0.00000000	      0.00000000
     53.90285714	     -2.49607837	     -4.23354912	      3.96496476	      1.05581001	      0.92871304	      0.44246525	      5.88629758	     -5.72205559	    -13.11574424	     34.72088884	     34.72088884	     11.59367877	     -5.68903185	     -9.82511760	     19.28096255	     -5.84805157	     -5.06142595	     27.06940553	     27.06940553	     13.32072695	    -10.46723901	      3.33044369	     -7.21392436	      4.95360718	      3.92784836	     26.48059158	    -14.64667195	     -4.50382956	     83.84371067	     45.14201209	      0.00000000	      0.00000000	      2.00415286	    -10.08837242	     -2.38975997	     30.21569097	     45.31749868	      0.00000000	      0.00000000
     53.91542857	     -2.48498635	     -4.38753834	      3.56227687	      1.05577766	      0.92927869	      0.44072411	      7.50446234	     -5.96137362	    -12.16250974	     37.85741276	     37.85741276	     10.22210680	     -7.24583873	    -10.47433096	     18.69022359	     -6.16085469	     -5.94327843	     26.84417557	     26.84417557	     13.71773415	     -9.44483664	      2.74260094	     -7.08405518	      5.01443419	      3.40638730	     26.38743192	    -13.99268427	     -3.92257383	     78.66301003	     45.29261659	      0.00000000	      0.00000000	      2.38707752	    -10.40752871	     -1.17273727	     30.26642151	     45.16774246	      0.00000000	      0.00000000
